<svg class="svg-icon" style="width: 1em;height: 1em;vertical-align: middle;fill: currentColor;overflow: hidden;" viewBox="0 0 1024 1024" version="1.1" xmlns="http://www.w3.org/2000/svg"><path d="M827.8 959.7H196.2V64.3h631.6v895.4z m-589.7-41.9h547.7V106.2H238.1v811.6z" fill="#666666" /><path d="M147.1 916.5h729.8v41.9H147.1zM639.1 437.7c31.3 0 56.6 25.3 56.6 56.6s-25.3 56.6-56.6 56.6-56.6-25.3-56.6-56.6 25.3-56.6 56.6-56.6m0-42c-54.3 0-98.5 44.2-98.5 98.5s44.2 98.5 98.5 98.5 98.5-44.2 98.5-98.5-44.2-98.5-98.5-98.5z" fill="#666666" /><path d="M618.1 571.9H660v81.8h-41.9z" fill="#666666" /></svg>